<svg width="400" height="240" viewBox="0 0 400 240" fill="none" xmlns="http://www.w3.org/2000/svg">
  <rect width="400" height="240" fill="#0a0a0a"/>
  <defs>
    <pattern id="grid4" width="20" height="20" patternUnits="userSpaceOnUse">
      <path d="M 20 0 L 0 0 0 20" fill="none" stroke="#1a1a1a" stroke-width="0.5"/>
    </pattern>
  </defs>
  <rect width="400" height="240" fill="url(#grid4)"/>
  
  <!-- Mobile phone mockup -->
  <rect x="150" y="30" width="100" height="180" rx="12" fill="#111" stroke="#FF8C00" stroke-width="2" opacity="0.8"/>
  <rect x="158" y="50" width="84" height="140" rx="4" fill="#0a0a0a"/>
  
  <!-- App UI elements -->
  <circle cx="200" cy="42" r="3" fill="#FF8C00" opacity="0.5"/>
  <rect x="166" y="60" width="68" height="30" rx="4" fill="#FF8C00" opacity="0.3"/>
  <rect x="166" y="100" width="68" height="8" rx="2" fill="#fff" opacity="0.2"/>
  <rect x="166" y="115" width="50" height="8" rx="2" fill="#fff" opacity="0.15"/>
  <rect x="166" y="135" width="68" height="24" rx="4" fill="#FF8C00" opacity="0.6"/>
  <rect x="166" y="165" width="30" height="16" rx="8" fill="#FF8C00" opacity="0.4"/>
  <rect x="206" y="165" width="28" height="16" rx="8" fill="#fff" opacity="0.1"/>
  
  <!-- Notification badge -->
  <circle cx="280" cy="60" r="20" fill="#FF8C00" opacity="0.2"/>
  <path d="M275 55 L280 50 L285 55 L285 68 L275 68 Z" fill="#FF8C00" opacity="0.6"/>
  
  <!-- Wifi icon -->
  <circle cx="120" cy="120" r="20" fill="#FF8C00" opacity="0.1"/>
  <path d="M110 125 Q120 110 130 125" stroke="#FF8C00" stroke-width="2" fill="none" opacity="0.5"/>
  <path d="M115 130 Q120 120 125 130" stroke="#FF8C00" stroke-width="2" fill="none" opacity="0.7"/>
  
  <text x="200" y="225" text-anchor="middle" fill="#FF8C00" font-family="system-ui" font-size="10" opacity="0.5">PROJECT DELTA</text>
</svg>

