<svg width="400" height="240" viewBox="0 0 400 240" fill="none" xmlns="http://www.w3.org/2000/svg">
  <rect width="400" height="240" fill="#0a0a0a"/>
  <defs>
    <pattern id="grid1" width="20" height="20" patternUnits="userSpaceOnUse">
      <path d="M 20 0 L 0 0 0 20" fill="none" stroke="#1a1a1a" stroke-width="0.5"/>
    </pattern>
  </defs>
  <rect width="400" height="240" fill="url(#grid1)"/>
  
  <!-- Decorative elements -->
  <circle cx="320" cy="60" r="40" fill="#FFA500" opacity="0.1"/>
  <circle cx="80" cy="180" r="60" fill="#FFA500" opacity="0.05"/>
  
  <!-- Code window mockup -->
  <rect x="40" y="40" width="320" height="160" rx="8" fill="#111" stroke="#FFA500" stroke-width="1" opacity="0.5"/>
  <circle cx="60" cy="56" r="4" fill="#ff5f56"/>
  <circle cx="76" cy="56" r="4" fill="#ffbd2e"/>
  <circle cx="92" cy="56" r="4" fill="#27ca3f"/>
  
  <!-- Code lines -->
  <rect x="56" y="80" width="120" height="8" rx="2" fill="#FFA500" opacity="0.6"/>
  <rect x="56" y="100" width="200" height="8" rx="2" fill="#fff" opacity="0.2"/>
  <rect x="56" y="120" width="160" height="8" rx="2" fill="#fff" opacity="0.15"/>
  <rect x="56" y="140" width="180" height="8" rx="2" fill="#FFA500" opacity="0.4"/>
  <rect x="56" y="160" width="100" height="8" rx="2" fill="#fff" opacity="0.1"/>
  
  <text x="200" y="220" text-anchor="middle" fill="#FFA500" font-family="system-ui" font-size="10" opacity="0.5">PROJECT ALPHA</text>
</svg>

