<svg width="400" height="240" viewBox="0 0 400 240" fill="none" xmlns="http://www.w3.org/2000/svg">
  <rect width="400" height="240" fill="#0a0a0a"/>
  <defs>
    <pattern id="grid6" width="20" height="20" patternUnits="userSpaceOnUse">
      <path d="M 20 0 L 0 0 0 20" fill="none" stroke="#1a1a1a" stroke-width="0.5"/>
    </pattern>
  </defs>
  <rect width="400" height="240" fill="url(#grid6)"/>
  
  <!-- Video call grid -->
  <rect x="50" y="40" width="140" height="90" rx="8" fill="#111" stroke="#FF7F50" stroke-width="1" opacity="0.6"/>
  <rect x="210" y="40" width="140" height="90" rx="8" fill="#111" stroke="#FF7F50" stroke-width="1" opacity="0.6"/>
  <rect x="50" y="145" width="140" height="70" rx="8" fill="#111" stroke="#FF7F50" stroke-width="1" opacity="0.6"/>
  <rect x="210" y="145" width="140" height="70" rx="8" fill="#111" stroke="#FF7F50" stroke-width="1" opacity="0.6"/>
  
  <!-- User avatars -->
  <circle cx="120" cy="75" r="20" fill="#FF7F50" opacity="0.3"/>
  <circle cx="120" cy="70" r="8" fill="#FF7F50" opacity="0.5"/>
  <path d="M105 90 Q120 80 135 90" fill="#FF7F50" opacity="0.4"/>
  
  <circle cx="280" cy="75" r="20" fill="#FF7F50" opacity="0.25"/>
  <circle cx="280" cy="70" r="8" fill="#FF7F50" opacity="0.4"/>
  <path d="M265 90 Q280 80 295 90" fill="#FF7F50" opacity="0.35"/>
  
  <circle cx="120" cy="170" r="15" fill="#FF7F50" opacity="0.2"/>
  <circle cx="280" cy="170" r="15" fill="#FF7F50" opacity="0.2"/>
  
  <!-- Control buttons -->
  <rect x="165" y="105" width="70" height="25" rx="12" fill="#FF7F50" opacity="0.2"/>
  <circle cx="185" cy="117" r="6" fill="#FF7F50" opacity="0.6"/>
  <circle cx="200" cy="117" r="6" fill="#ff5f56" opacity="0.6"/>
  <circle cx="215" cy="117" r="6" fill="#FF7F50" opacity="0.6"/>
  
  <text x="200" y="230" text-anchor="middle" fill="#FF7F50" font-family="system-ui" font-size="10" opacity="0.5">PROJECT ZETA</text>
</svg>

