<svg width="400" height="240" viewBox="0 0 400 240" fill="none" xmlns="http://www.w3.org/2000/svg">
  <rect width="400" height="240" fill="#0a0a0a"/>
  <defs>
    <pattern id="grid2" width="20" height="20" patternUnits="userSpaceOnUse">
      <path d="M 20 0 L 0 0 0 20" fill="none" stroke="#1a1a1a" stroke-width="0.5"/>
    </pattern>
  </defs>
  <rect width="400" height="240" fill="url(#grid2)"/>
  
  <!-- E-commerce elements -->
  <rect x="60" y="50" width="120" height="140" rx="8" fill="#111" stroke="#FF6B35" stroke-width="1" opacity="0.6"/>
  <rect x="75" y="70" width="90" height="60" rx="4" fill="#FF6B35" opacity="0.2"/>
  <rect x="75" y="140" width="60" height="8" rx="2" fill="#fff" opacity="0.3"/>
  <rect x="75" y="155" width="40" height="6" rx="2" fill="#FF6B35" opacity="0.5"/>
  <rect x="75" y="170" width="90" height="10" rx="4" fill="#FF6B35" opacity="0.7"/>
  
  <!-- Shopping cart icon -->
  <rect x="220" y="50" width="120" height="140" rx="8" fill="#111" stroke="#FF6B35" stroke-width="1" opacity="0.6"/>
  <circle cx="280" cy="100" r="25" fill="#FF6B35" opacity="0.2"/>
  <path d="M268 95 L275 95 L280 110 L292 110 L296 100 M275 120 L290 120" stroke="#FF6B35" stroke-width="2" fill="none"/>
  <rect x="235" y="140" width="90" height="40" rx="4" fill="#FF6B35" opacity="0.15"/>
  
  <text x="200" y="220" text-anchor="middle" fill="#FF6B35" font-family="system-ui" font-size="10" opacity="0.5">PROJECT BETA</text>
</svg>

